<?xml version="1.0" encoding="UTF-8" standalone="no"?>
<!-- Created with Inkscape (http://www.inkscape.org/) -->

<svg
   width="512"
   height="512"
   viewBox="0 0 135.46666 135.46667"
   version="1.1"
   id="svg1"
   xml:space="preserve"
   xmlns="http://www.w3.org/2000/svg"
   xmlns:svg="http://www.w3.org/2000/svg"><defs
     id="defs1" /><g
     id="layer1"><path
       id="text2"
       style="font-style:normal;font-variant:normal;font-weight:normal;font-stretch:normal;font-size:31.75px;font-family:Arial;-inkscape-font-specification:Arial;text-align:start;letter-spacing:-4.69635px;writing-mode:lr-tb;direction:ltr;text-anchor:start;fill:#ffffff;fill-opacity:1;stroke:#d8d8d8;stroke-width:0.947362;stroke-linejoin:round;stroke-opacity:0.835366;paint-order:normal"
       d="m 119.28119,67.096308 c -0.0596,-0.0093 -0.11916,-0.02095 -0.1792,-0.03072 -2.92293,-0.507325 -8.10623,-1.153078 -15.54993,-1.937188 -5.144342,-0.553476 -8.242632,-0.907084 -9.294882,-1.060848 -1.8317,-0.292121 -3.17624,-0.661089 -4.03363,-1.106974 -0.85739,-0.430479 -1.28608,-0.914764 -1.28608,-1.45288 0,-0.84562 1.03277,-1.58358 3.09829,-2.213949 2.06553,-0.630346 5.51457,-0.945508 10.347142,-0.945508 4.09208,0 7.24883,0.353632 9.47024,1.060825 2.26039,0.707239 3.62442,1.691194 4.09208,2.951909 l 10.28867,-0.553452 c -0.66253,-1.583604 -1.87067,-2.844319 -3.62442,-3.78217 -1.75375,-0.953234 -4.4818,-1.706577 -8.18416,-2.260053 -3.66339,-0.553499 -7.93084,-0.830213 -12.80237,-0.830213 -3.234712,0 -6.274542,0.169194 -9.119512,0.507348 -2.806,0.322865 -5.02741,0.7226 -6.66425,1.199206 -2.0691,0.583055 -3.73476,1.311496 -4.99818,2.184742 -0.55175,-0.480306 -1.22571,-0.908993 -2.02072,-1.285315 -1.55889,-0.75339 -3.99465,-1.376033 -7.30729,-1.868022 -3.31263,-0.491965 -7.619068,-0.737959 -12.919283,-0.737959 -5.339195,0 -10.035349,0.292074 -14.088457,0.87634 -0.55645,0.0782 -1.094949,0.161514 -1.615401,0.249066 -3.350776,-0.749991 -6.652342,-1.125406 -9.904785,-1.125406 -2.455257,0 -4.71564,0.276714 -6.781171,0.830213 -2.026557,0.553476 -4.247967,1.698897 -6.664249,3.436218 v -3.71298 H 10.069398 V 79.980246 H 20.591893 V 67.157864 c 0,-1.752704 0.584585,-3.367051 1.753749,-4.843017 0.779446,-0.968571 2.085018,-1.721937 3.91671,-2.260053 1.831695,-0.553499 3.897226,-0.830213 6.196587,-0.830213 0.367614,0 0.73532,0.0047 1.102906,0.01629 -1.304563,0.901591 -2.294555,1.979265 -2.96968,3.233278 l 10.288665,0.553476 c 1.130196,-1.737298 2.864461,-2.944229 5.202792,-3.620702 2.377304,-0.691857 6.040689,-1.037762 10.990163,-1.037762 5.300223,0 9.294873,0.468903 11.983953,1.406753 1.98759,0.691856 2.98138,1.883382 2.98138,3.574599 0,0.153833 -0.0196,0.515052 -0.0584,1.083911 -4.01414,0.553476 -10.269177,1.030081 -18.765127,1.429816 -4.170019,0.199914 -7.287799,0.407438 -9.353325,0.622689 -2.805998,0.307482 -5.339198,0.761047 -7.599586,1.36065 -2.221413,0.599602 -4.033621,1.399072 -5.436627,2.398433 -1.364024,0.983978 -2.046035,2.075546 -2.046035,3.274774 0,2.044825 1.831692,3.728339 5.495079,5.050542 3.663387,1.306842 8.905152,1.960251 15.725292,1.960251 4.131055,0 7.989304,-0.269034 11.574745,-0.80715 3.624414,-0.538116 7.385234,-1.460583 11.282454,-2.767402 0.31179,1.153102 1.01328,2.160096 2.1045,3.0211 h 10.99016 c -0.82964,-0.587222 -1.49015,-1.189175 -1.98368,-1.806511 0.35799,0.131026 0.72752,0.256281 1.11071,0.376648 4.24798,1.322226 10.40558,1.983315 18.472842,1.983315 4.87152,0 9.23641,-0.330545 13.09467,-0.991634 3.85824,-0.676473 6.80066,-1.622027 8.82719,-2.836615 2.06554,-1.229972 3.0983,-2.536791 3.0983,-3.920527 -0.63407,-4.349818 -9.29105,-5.686496 -9.29105,-5.686496 z M 82.618838,66.112284 c 1.38886,0.605094 3.12442,1.107556 5.2067,1.507477 3.00085,0.553476 8.35953,1.214612 16.076042,1.983362 5.72892,0.568836 9.31436,1.037761 10.75633,1.406729 2.06553,0.538139 3.0983,1.276122 3.0983,2.213973 0,1.045464 -1.16917,1.960252 -3.5075,2.744338 -2.33834,0.76875 -5.92378,1.153102 -10.75633,1.153102 -4.793602,0 -8.534932,-0.438182 -11.224012,-1.314522 -2.65012,-0.876364 -4.26746,-2.137079 -4.85204,-3.78217 l -4.75656,0.295217 c -0.0262,-0.780642 -0.0409,-1.648162 -0.0409,-2.601373 z m -10.63941,1.576644 v 1.52214 c 0,1.829528 -0.5651,3.213264 -1.69529,4.151091 -1.48094,1.214612 -3.79979,2.175549 -6.956538,2.882742 -3.15675,0.69188 -6.761682,1.037785 -10.814792,1.037785 -4.092081,0 -7.209865,-0.368992 -9.353333,-1.106975 -2.104494,-0.73796 -3.156745,-1.660427 -3.156745,-2.767402 0,-0.722623 0.48715,-1.376032 1.461458,-1.960275 0.9743,-0.599602 2.357813,-1.053168 4.150542,-1.360649 1.792717,-0.307505 4.852037,-0.584219 9.177954,-0.830237 7.638554,-0.430455 13.367474,-0.953211 17.186744,-1.56822 z" /></g></svg>
