<?xml version="1.0" encoding="UTF-8" standalone="no"?>
<!-- Created with Inkscape (http://www.inkscape.org/) -->

<svg
   width="512"
   height="512"
   viewBox="0 0 135.46666 135.46667"
   version="1.1"
   id="svg1"
   xml:space="preserve"
   xmlns="http://www.w3.org/2000/svg"
   xmlns:svg="http://www.w3.org/2000/svg"><defs
     id="defs1" /><g
     id="layer1"><path
       id="text2"
       style="font-style:normal;font-variant:normal;font-weight:normal;font-stretch:normal;font-size:31.75px;font-family:Arial;-inkscape-font-specification:Arial;text-align:start;letter-spacing:-4.69635px;writing-mode:lr-tb;direction:ltr;text-anchor:start;fill:#ffffff;fill-opacity:1;stroke:#d8d8d8;stroke-width:2.01732;stroke-linejoin:round;stroke-opacity:0.835366;paint-order:normal"
       d="m 116.91733,64.10325 c -0.0555,-0.04527 -0.11098,-0.101976 -0.16694,-0.149537 -2.72271,-2.469561 -7.55096,-5.612962 -14.48479,-9.429856 -4.791972,-2.694215 -7.678031,-4.41551 -8.658202,-5.164003 -1.706232,-1.421989 -2.958673,-3.218054 -3.757332,-5.388535 -0.79866,-2.095488 -1.197987,-4.452894 -1.197987,-7.072337 0,-4.116315 0.962028,-7.708555 2.886063,-10.777071 1.924044,-3.068403 5.13682,-4.60255 9.638368,-4.60255 3.81181,0 6.75232,1.721412 8.82158,5.163892 2.10555,3.442703 3.37614,8.2324 3.81177,14.369316 l 9.58391,-2.694097 c -0.61715,-7.708672 -1.74253,-13.84559 -3.37615,-18.410866 -1.63363,-4.64016 -4.1748,-8.307287 -7.62356,-11.0014995 -3.41246,-2.6943258 -7.3876,-4.0413158 -11.92545,-4.0413158 -3.013137,0 -5.844744,0.8236036 -8.494833,2.4696711 -2.613793,1.5716447 -4.683039,3.5174772 -6.207758,5.8375012 -1.927369,2.8382 -3.478933,6.38411 -4.655811,10.634901 C 80.596252,21.508827 79.968457,19.422063 79.227905,17.5902 77.775797,13.922844 75.506884,10.891939 72.421155,8.4970322 69.335435,6.1022418 65.323982,4.9047907 60.386827,4.9047907 c -4.973468,0 -9.347942,1.42176 -13.123418,4.2658534 -0.518333,0.3806602 -1.019945,0.7862182 -1.504748,1.2124049 -3.121251,-3.6508105 -6.196664,-5.4782583 -9.22632,-5.4782583 -2.287075,0 -4.392624,1.34699 -6.316669,4.0413158 -1.887741,2.6942125 -3.956987,8.2698995 -6.207756,16.7268425 V 7.5988829 H 15.18637 V 126.81975 h 9.801718 V 64.402892 c 0,-8.531821 0.544544,-16.390148 1.63362,-23.574865 0.726056,-4.714816 1.942197,-8.382056 3.648422,-11.001495 1.706225,-2.694325 3.63027,-4.041318 5.772128,-4.041318 0.342433,0 0.684951,0.02288 1.027359,0.0793 -1.215203,4.388772 -2.137382,9.634674 -2.766262,15.738967 l 9.583904,2.694213 c 1.05278,-8.456829 2.66825,-14.331929 4.846409,-17.624869 2.214461,-3.367828 5.626908,-5.051626 10.237351,-5.051626 4.937165,0 8.658186,2.282528 11.163067,6.847803 1.851443,3.367816 2.77716,9.167932 2.77716,17.400449 0,0.748829 -0.01826,2.507173 -0.0544,5.276268 -3.739176,2.694213 -9.565751,5.014235 -17.479741,6.960067 -3.884377,0.973142 -6.788593,1.983328 -8.712633,3.031128 -2.613792,1.496764 -4.973471,3.70463 -7.079024,6.623381 -2.06925,2.918747 -3.757323,6.810411 -5.064226,11.675107 -1.27059,4.789813 -1.905884,10.103355 -1.905884,15.940964 0,9.953794 1.706224,18.148824 5.118673,24.585044 3.412451,6.36145 8.29516,9.54213 14.64813,9.54213 3.848083,0 7.442048,-1.30961 10.78189,-3.92905 3.376145,-2.61945 6.879355,-7.10984 10.50962,-13.47118 0.290434,5.61308 0.943872,10.51492 1.960346,14.70613 h 10.237351 c -0.772811,-2.85849 -1.388076,-5.78868 -1.8478,-8.79375 0.333468,0.63781 0.677685,1.24754 1.034628,1.83346 3.956998,6.43632 9.692807,9.65439 17.207484,9.65439 4.53784,0 8.60374,-1.60904 12.19771,-4.82709 3.59396,-3.29294 6.33483,-7.89572 8.22254,-13.80808 1.92404,-5.98728 2.88607,-12.348603 2.88607,-19.084363 -0.59064,-21.174069 -8.65463,-27.680759 -8.65463,-27.680759 z M 82.766268,59.313213 c 1.293724,2.945481 2.910402,5.391368 4.850048,7.338106 2.795296,2.694213 7.786918,5.912494 14.974874,9.65462 5.3365,2.768983 8.67634,5.051619 10.01954,6.847684 1.92404,2.619556 2.88607,6.211914 2.88607,10.777191 0,5.089117 -1.08908,9.542126 -3.26724,13.358896 -2.17817,3.74213 -5.51801,5.61308 -10.01955,5.61308 -4.465265,0 -7.950312,-2.13299 -10.455192,-6.39885 -2.46859,-4.26596 -3.975145,-10.402868 -4.519682,-18.410851 l -4.430741,1.437057 c -0.02442,-3.800012 -0.0381,-8.022932 -0.0381,-12.662978 z m -9.910623,7.674796 v 7.409484 c 0,8.905786 -0.526392,15.641543 -1.579166,20.206705 -1.379496,5.912502 -3.539508,10.590142 -6.480025,14.032612 -2.940515,3.36795 -6.298513,5.05175 -10.073991,5.05175 -3.811779,0 -6.715999,-1.79618 -8.712642,-5.38854 -1.960338,-3.59225 -2.940513,-8.08263 -2.940513,-13.471174 0,-3.517588 0.453782,-6.698257 1.36135,-9.542238 0.907561,-2.918746 2.196306,-5.126618 3.866236,-6.623375 1.669918,-1.496875 4.519679,-2.843864 8.549275,-4.041433 7.115324,-2.095371 12.45182,-4.640046 16.009476,-7.633791 z" /></g></svg>
